HIERARCHY
ROOT Hips
{
  OFFSET 0 0 0
  CHANNELS 6 Xposition Yposition Zposition Zrotation Xrotation Yrotation
  JOINT LeftUpLeg
  {
    OFFSET 4.06525 -3.90732 0.41711
    CHANNELS 3 Zrotation Xrotation Yrotation
    JOINT LeftLeg
    {
      OFFSET 0.00023 -18.4821 0.00367
      CHANNELS 3 Zrotation Xrotation Yrotation
      JOINT LeftFoot
      {
        OFFSET -0.00172 -15.2898 -0.02629
        CHANNELS 3 Zrotation Xrotation Yrotation
        JOINT LeftToeBase
        {
          OFFSET 0.36743 -3.19131 5.54287
          CHANNELS 3 Zrotation Xrotation Yrotation
          JOINT LeftToeBase2
          {
            OFFSET 0.08751 0.04849 1.36758
            CHANNELS 3 Zrotation Xrotation Yrotation
            JOINT LeftToeBase3
            {
              OFFSET 0.07484 0.06785 1.16707
            }
          }
        }
      }
    }
  }
  JOINT RightUpLeg
  {
    OFFSET -4.06526 -3.90731 0.41712
    CHANNELS 3 Zrotation Xrotation Yrotation
    JOINT RightLeg
    {
      OFFSET -0.00029 -18.4821 0.0044
      CHANNELS 3 Zrotation Xrotation Yrotation
      JOINT RightFoot
      {
        OFFSET 0.0016 -15.2898 -0.02569
        CHANNELS 3 Zrotation Xrotation Yrotation
        JOINT RightToeBase
        {
          OFFSET -0.3542 -3.19109 5.54386
          CHANNELS 3 Zrotation Xrotation Yrotation
          JOINT RightToeBase2
          {
            OFFSET -0.08424 0.04854 1.36778
            CHANNELS 3 Zrotation Xrotation Yrotation
            JOINT RightToeBase3
            {
              OFFSET -0.07205 0.0679 1.16725
            }
          }
        }
      }
    }
  }
  JOINT Spine
  {
    OFFSET 1e-005 4.46517 -0.10224
    CHANNELS 3 Zrotation Xrotation Yrotation
    JOINT Spine1
    {
      OFFSET 1e-005 4.46212 -0.1824
      CHANNELS 3 Zrotation Xrotation Yrotation
      JOINT Spine2
      {
        OFFSET 0 4.37937 -0.881
        CHANNELS 3 Zrotation Xrotation Yrotation
        JOINT Spine3
        {
          OFFSET 1e-005 4.68286 0.21414
          CHANNELS 3 Zrotation Xrotation Yrotation
          JOINT Neck
          {
            OFFSET 0 1.76964 0.82454
            CHANNELS 3 Zrotation Xrotation Yrotation
            JOINT Head
            {
              OFFSET 0 1.6961 0.93145
              CHANNELS 3 Zrotation Xrotation Yrotation
              JOINT Head_End
              {
                OFFSET 1e-005 7.8375 1.52603
              }
            }
          }
          JOINT LeftShoulder
          {
            OFFSET 1.19381 -0.75881 -0.02768
            CHANNELS 3 Zrotation Xrotation Yrotation
            JOINT LeftArm
            {
              OFFSET 5.18779 -2e-005 1e-005
              CHANNELS 3 Zrotation Xrotation Yrotation
              JOINT LeftForeArm
              {
                OFFSET 12.7364 -4e-005 2e-005
                CHANNELS 3 Zrotation Xrotation Yrotation
                JOINT LeftHand
                {
                  OFFSET 9.21452 -2e-005 1e-005
                  CHANNELS 3 Zrotation Xrotation Yrotation
                }
              }
            }
          }
          JOINT RightShoulder
          {
            OFFSET -1.19381 -0.75881 -0.02767
            CHANNELS 3 Zrotation Xrotation Yrotation
            JOINT RightArm
            {
              OFFSET -5.18779 1e-005 -1e-005
              CHANNELS 3 Zrotation Xrotation Yrotation
              JOINT RightForeArm
              {
                OFFSET -12.7364 3e-005 -2e-005
                CHANNELS 3 Zrotation Xrotation Yrotation
                JOINT RightHand
                {
                  OFFSET -9.21452 2e-005 -1e-005
                  CHANNELS 3 Zrotation Xrotation Yrotation
                }
              }
            }
          }
        }
      }
    }
  }
}
MOTION
Frames: 16
Frame Time: 	0.0166667
0.620454 41.9405 35.2009 -7.96894 -3.26944 141.013 -3.4974 -17.0816 -1.66612  0.000194511 19.3691 0.00250429  -2.0133 -10.2374 13.4292  6.99662e-012 -1.7531e-011 9.24301e-011  -0 0 -0   -6.49486 -3.98446 -17.855  0.000392271 14.3256 0.0153202  1.59307 -15.3273 -1.44694  -3.76697e-014 -1.29381e-011 1.02101e-010  -0 0 -0   2.70516 1.90874 0.651628  0.857652 2.4252 0.463735  0.414229 2.47831 0.549455  -0.00346503 4.51506 0.925262  -1.59083 0.137195 2.87826  -10.4088 -14.4067 2.23465   -6.13925 2.61876 -7.89714  -62.3049 14.9731 -5.7865  -4.57747e-011 -1.24068e-010 -12.9239  8.41938 -10.1422 2.88342  5.32043 2.51071 8.06538  58.5249 9.21619 -0.607822  -1.21257e-011 1.70956e-011 18.5168  -1.5123 2.0244 -5.96787 
0.657946 41.9353 35.3838 -7.84132 -3.57739 143.185 -3.77523 -16.4506 -2.21235  0.000266218 19.3918 0.00405995  -1.73803 -10.5849 14.3907  6.99662e-012 -1.7531e-011 9.24301e-011  -0 0 -0   -5.87425 -3.87825 -18.0293  0.00140514 14.174 0.0125064  1.06639 -15.4549 -3.46526  -3.76697e-014 -1.29381e-011 1.02101e-010  -0 0 -0   2.66566 1.66391 0.498261  0.873822 2.36439 0.378336  0.459603 2.51121 0.471992  0.0997057 4.70883 0.775084  -0.696516 0.0496492 2.35577  -10.5921 -14.2819 1.82596   -5.62136 2.5922 -8.00645  -62.7486 16.0215 -5.62383  -4.28656e-011 -1.247e-010 -11.5839  5.77524 -8.8581 2.796  6.08048 2.55457 7.78648  58.2095 8.57424 -0.700463  -1.20235e-011 1.71295e-011 18.1747  -1.3941 1.95817 -5.68891 
0.697864 41.9276 35.5489 -7.65928 -3.86746 145.217 -3.89253 -15.8156 -2.9361  0.000282874 19.2833 0.00563553  -1.61858 -10.8674 14.9445  6.99662e-012 -1.7531e-011 9.24301e-011  -0 0 -0   -5.2369 -3.7429 -18.1841  0.00246617 13.9774 0.00961657  0.571237 -15.5332 -5.35399  -3.76697e-014 -1.29381e-011 1.02101e-010  -0 0 -0   2.61871 1.43483 0.384276  0.886462 2.30944 0.31545  0.506377 2.54715 0.416553  0.232491 4.89379 0.662465  0.141869 -0.0481816 1.83732  -10.7429 -14.1879 1.41242   -5.13309 2.56113 -8.08326  -63.3274 16.9574 -5.46427  -4.02335e-011 -1.25211e-010 -10.3771  3.48228 -7.82967 3.03587  6.77923 2.59436 7.55861  57.9592 7.9891 -0.699674  -1.18775e-011 1.71767e-011 17.687  -1.15018 2.0024 -5.55082 
0.737413 41.919 35.6897 -7.42694 -4.15697 147.047 -3.81847 -15.226 -3.60003  0.000265206 18.9862 0.00726056  -1.6743 -11.0963 14.9736  6.99662e-012 -1.7531e-011 9.24301e-011  -0 0 -0   -4.58442 -3.60179 -18.3444  0.00348705 13.7318 0.00697704  0.132906 -15.5437 -7.02536  -3.76697e-014 -1.29381e-011 1.02101e-010  -0 0 -0   2.59639 1.21363 0.329649  0.903586 2.25693 0.278745  0.565916 2.5838 0.385527  0.429691 5.04378 0.592328  0.773364 -0.115766 1.33951  -10.788 -14.1236 0.993521   -4.7712 2.52693 -8.1041  -64.0539 17.8079 -5.23161  -3.8174e-011 -1.2557e-010 -9.43605  1.69117 -6.98187 3.59072  7.30308 2.62127 7.3918  57.812 7.57187 -0.624733  -1.16918e-011 1.72348e-011 17.0688  -0.920029 1.94791 -5.60683 
0.774465 41.9109 35.8118 -7.17887 -4.41502 148.699 -3.62923 -14.7002 -4.14001  0.000224439 18.551 0.00896803  -1.86492 -11.2399 14.5609  6.99662e-012 -1.7531e-011 9.24301e-011  -0 0 -0   -3.96857 -3.44379 -18.5387  0.00446167 13.4495 0.00457822  -0.247961 -15.5088 -8.47908  -3.76697e-014 -1.29381e-011 1.02101e-010  -0 0 -0   2.5653 1.02085 0.31713  0.924854 2.20944 0.264091  0.632203 2.61138 0.376234  0.659806 5.16529 0.56297  1.25948 -0.174695 0.859187  -10.7709 -14.0754 0.579151   -4.54797 2.50371 -8.08127  -64.8512 18.541 -4.95278  -3.64685e-011 -1.25842e-010 -8.6587  0.363139 -6.54729 4.34724  7.7028 2.64697 7.27432  57.736 7.31053 -0.450986  -1.14674e-011 1.73022e-011 16.3242  -0.617569 1.88455 -5.79969 
0.807729 41.9053 35.9152 -6.95822 -4.61013 150.177 -3.39408 -14.27 -4.39523  0.000145485 17.9739 0.0108961  -2.16467 -11.2462 13.6926  6.99662e-012 -1.7531e-011 9.24301e-011  -0 0 -0   -3.45152 -3.26147 -18.8089  0.00538215 13.141 0.00243095  -0.562953 -15.445 -9.67171  -3.76697e-014 -1.29381e-011 1.02101e-010  -0 0 -0   2.48156 0.876402 0.336929  0.95485 2.16742 0.268984  0.708618 2.61483 0.387721  0.920961 5.25872 0.577457  1.59986 -0.232706 0.398381  -10.7163 -14.0287 0.182472   -4.52848 2.5097 -8.01514  -65.6562 19.147 -4.6236  -3.50329e-011 -1.26052e-010 -8.00562  -0.418513 -6.85438 5.28067  7.98401 2.68403 7.20641  57.7019 7.24987 -0.163213  -1.12036e-011 1.73772e-011 15.4526  -0.192953 1.80187 -6.09035 
0.833633 41.9014 36.0052 -6.75347 -4.76401 151.503 -3.12718 -13.9467 -4.42434  3.11461e-005 17.3573 0.0130729  -2.51962 -11.1658 12.5463  6.99662e-012 -1.7531e-011 9.24301e-011  -0 0 -0   -3.00085 -3.06988 -19.1407  0.00616692 12.813 0.000889751  -0.820159 -15.3545 -10.6482  -3.76697e-014 -1.29381e-011 1.02101e-010  -0 0 -0   2.40909 0.774402 0.38661  0.986876 2.1339 0.292227  0.778575 2.60766 0.417209  1.15993 5.31621 0.626387  1.82788 -0.290897 -0.0418412  -10.6066 -13.985 -0.206376   -4.6514 2.53397 -7.91805  -66.4408 19.5855 -4.26115  -3.37469e-011 -1.26226e-010 -7.42151  -0.869331 -7.54045 6.11312  8.16895 2.72102 7.16224  57.7395 7.33062 0.247597  -1.09088e-011 1.74561e-011 14.4827  0.323034 1.79155 -6.47755 
0.846551 41.899 36.0841 -6.55813 -4.9018 152.691 -2.85121 -13.7683 -4.18193  -8.69147e-005 16.7913 0.0153961  -2.87468 -11.022 11.2459  6.99662e-012 -1.7531e-011 9.24301e-011  -0 0 -0   -2.60749 -2.89123 -19.5295  0.00684975 12.4774 -0.000180148  -1.02187 -15.2387 -11.427  -3.76697e-014 -1.29381e-011 1.02101e-010  -0 0 -0   2.40943 0.714228 0.464594  1.01523 2.11073 0.334531  0.823614 2.59656 0.464234  1.3135 5.31927 0.705154  1.97481 -0.342012 -0.458769  -10.4307 -13.9368 -0.594286   -4.88908 2.57405 -7.79626  -67.1513 19.7954 -3.87557  -3.2398e-011 -1.26395e-010 -6.80964  -1.14013 -8.35087 6.52758  8.27681 2.7499 7.11072  57.8814 7.52549 0.809571  -1.0578e-011 1.75382e-011 13.3996  0.917644 1.93334 -6.9402 
0.851191 41.8979 36.1557 -6.37188 -5.00255 153.786 -2.59499 -13.6848 -3.81503  -0.000111069 16.31 0.0174924  -3.20433 -10.8503 9.94129  6.99662e-012 -1.7531e-011 9.24301e-011  -0 0 -0   -2.2651 -2.69517 -19.9868  0.00751258 12.1268 -0.0011516  -1.18202 -15.1074 -12.0451  -3.76697e-014 -1.29381e-011 1.02101e-010  -0 0 -0   2.44395 0.700073 0.558491  1.0413 2.1019 0.387658  0.852741 2.587 0.520886  1.41078 5.30017 0.802339  2.04614 -0.418872 -0.85531  -10.1927 -13.8954 -0.976868   -5.20565 2.62277 -7.66837  -67.8013 19.8294 -3.48354  -3.11736e-011 -1.26535e-010 -6.25491  -1.3418 -9.28987 6.61666  8.3225 2.77313 7.0679  58.0899 7.78335 1.48059  -1.02509e-011 1.76129e-011 12.3333  1.5866 2.25258 -7.4987 
0.850438 41.8978 36.2255 -6.19172 -5.04936 154.843 -2.39735 -13.6603 -3.45156  1.79142e-005 15.9799 0.0189959  -3.48165 -10.6955 8.81881  6.99662e-012 -1.7531e-011 9.24301e-011  -0 0 -0   -1.96866 -2.45384 -20.5395  0.00815315 11.7564 -0.0020288  -1.31546 -14.9696 -12.5346  -3.76697e-014 -1.29381e-011 1.02101e-010  -0 0 -0   2.49416 0.74176 0.653886  1.06318 2.11397 0.442833  0.865712 2.58703 0.577996  1.44924 5.28436 0.903755  2.06658 -0.559272 -1.23353  -9.89422 -13.8682 -1.35118   -5.55247 2.6716 -7.55455  -68.3748 19.7142 -3.10667  -3.01563e-011 -1.26642e-010 -5.79445  -1.63384 -10.3082 6.28236  8.33923 2.78915 7.03273  58.3437 8.03129 2.24666  -9.95794e-012 1.76744e-011 11.3819  2.33935 2.85162 -8.18691 
0.844612 41.8983 36.2913 -6.01477 -5.05863 155.846 -2.24057 -13.6936 -3.10062  0.000240859 15.7945 0.0200464  -3.68278 -10.5734 7.88902  6.99662e-012 -1.7531e-011 9.24301e-011  -0 0 -0   -1.70048 -2.18229 -21.1368  0.00876931 11.3677 -0.00281593  -1.42476 -14.8224 -12.9283  -3.76697e-014 -1.29381e-011 1.02101e-010  -0 0 -0   2.55972 0.821768 0.755332  1.08486 2.14108 0.502374  0.871579 2.59563 0.638885  1.46005 5.27369 1.01312  2.00611 -0.740973 -1.5933  -9.53288 -13.8592 -1.72003   -5.93973 2.72207 -7.45639  -68.906 19.4669 -2.74026  -2.94496e-011 -1.26712e-010 -5.47483  -2.02124 -11.3117 5.77952  8.29127 2.80209 7.0254  58.6258 8.30729 3.05149  -9.72432e-012 1.77198e-011 10.6256  3.12195 3.57923 -8.94325 
0.834818 41.8988 36.3546 -5.83596 -5.03999 156.804 -2.12902 -13.7754 -2.81917  0.000432447 15.7685 0.0210344  -3.76042 -10.5068 7.22722  6.99662e-012 -1.7531e-011 9.24301e-011  -0 0 -0   -1.44812 -1.88457 -21.7667  0.00935912 10.9631 -0.00351723  -1.51945 -14.6652 -13.2474  -3.76697e-014 -1.29381e-011 1.02101e-010  -0 0 -0   2.6326 0.930946 0.862907  1.10936 2.1815 0.565831  0.879279 2.61527 0.703931  1.47423 5.27801 1.12968  1.8358 -0.965925 -1.93568  -9.09977 -13.8742 -2.08783   -6.35966 2.7725 -7.39  -69.426 19.1053 -2.3735  -2.93092e-011 -1.26725e-010 -5.41135  -2.58275 -12.2536 5.35105  8.1572 2.81763 7.0537  58.9108 8.62417 3.84757  -9.58718e-012 1.7745e-011 10.1824  3.91767 4.37246 -9.777 
0.820882 41.8983 36.4121 -5.65034 -5.00201 157.697 -2.03825 -13.895 -2.59198  0.000580067 15.906 0.0219641  -3.76607 -10.5235 6.82394  6.99662e-012 -1.7531e-011 9.24301e-011  -0 0 -0   -1.19471 -1.56562 -22.3407  0.00992003 10.5352 -0.00413684  -1.59303 -14.4982 -13.558  -3.76697e-014 -1.29381e-011 1.02101e-010  -0 0 -0   2.71624 1.05406 0.97557  1.13755 2.22944 0.632727  0.888682 2.64358 0.772785  1.48911 5.29873 1.25272  1.57871 -1.19935 -2.2592  -8.61689 -13.915 -2.44703   -6.81728 2.82403 -7.33195  -69.9288 18.6542 -2.04639  -2.93613e-011 -1.2672e-010 -5.43489  -3.25648 -12.9427 4.93471  7.92725 2.82947 7.15378  59.202 8.98446 4.59462  -9.54195e-012 1.77531e-011 10.0364  4.62428 5.06887 -10.5095 
0.802186 41.897 36.4629 -5.44973 -4.95668 158.514 -1.95205 -14.0307 -2.46008  0.00066846 16.2191 0.022841  -3.72984 -10.673 6.74937  6.99662e-012 -1.7531e-011 9.24301e-011  -0 0 -0   -0.92569 -1.2352 -22.7588  0.0104501 10.0862 -0.00467897  -1.63644 -14.326 -13.9421  -3.76697e-014 -1.29381e-011 1.02101e-010  -0 0 -0   2.81088 1.1763 1.0924  1.17173 2.27951 0.702472  0.903657 2.67858 0.845364  1.51589 5.33842 1.38143  1.24032 -1.40653 -2.5632  -8.09647 -13.9926 -2.79294   -7.32066 2.8792 -7.2669  -70.4362 18.1269 -1.78646  -2.93242e-011 -1.26724e-010 -5.41813  -3.98066 -13.0332 4.56801  7.56535 2.83119 7.36979  59.5107 9.39763 5.22128  -9.60209e-012 1.77423e-011 10.2306  5.11494 5.45064 -10.9384 
0.780262 41.8942 36.506 -5.23178 -4.90693 159.249 -1.85271 -14.2057 -2.31231  0.000691581 16.699 0.0236686  -3.66087 -10.9077 6.84154  6.99662e-012 -1.7531e-011 9.24301e-011  -0 0 -0   -0.63151 -0.878837 -23.0429  0.0109446 9.587 -0.0051474  -1.66431 -14.1327 -14.3719  -3.76697e-014 -1.29381e-011 1.02101e-010  -0 0 -0   2.91841 1.28727 1.21311  1.21073 2.32881 0.77496  0.921124 2.72153 0.921246  1.54378 5.40347 1.51544  0.848229 -1.58939 -2.84606  -7.55916 -14.0854 -3.12145   -7.85317 2.93216 -7.18661  -70.8957 17.5756 -1.62041  -2.91757e-011 -1.26738e-010 -5.35101  -4.83366 -12.9413 4.19456  7.12901 2.82914 7.68549  59.7882 9.85575 5.77333  -9.7491e-012 1.77152e-011 10.7057  5.44685 5.62088 -11.1443 
0.756036 41.8898 36.5386 -4.98907 -4.86036 159.884 -1.70524 -14.44 -2.0021  0.000638611 17.3503 0.0244525  -3.60074 -11.2041 6.91517  6.99662e-012 -1.7531e-011 9.24301e-011  -0 0 -0   -0.289695 -0.469049 -23.1697  0.0113942 8.96956 -0.00554526  -1.68869 -13.8837 -14.85  -3.76697e-014 -1.29381e-011 1.02101e-010  -0 0 -0   3.04452 1.36832 1.34027  1.25533 2.37242 0.851743  0.939638 2.77598 1.00196  1.56556 5.50987 1.65752  0.424711 -1.7416 -3.10772  -7.02312 -14.1829 -3.42913   -8.40799 2.97865 -7.07875  -71.2552 17.027 -1.60477  -2.87067e-011 -1.26781e-010 -5.139  -5.93296 -12.9124 3.73135  6.65704 2.82512 8.10944  59.9904 10.3558 6.26422  -9.97884e-012 1.76702e-011 11.4496  5.63257 5.57629 -11.1651 
